<?xml version="1.0" standalone="no"?>
<!DOCTYPE svg PUBLIC "-//W3C//DTD SVG 20010904//EN"
 "http://www.w3.org/TR/2001/REC-SVG-20010904/DTD/svg10.dtd">
<svg version="1.0" xmlns="http://www.w3.org/2000/svg"
 width="150.000000pt" height="150.000000pt" viewBox="0 0 150.000000 150.000000"
 preserveAspectRatio="xMidYMid meet">

<g transform="translate(0.000000,150.000000) scale(0.100000,-0.100000)"
fill="#000000" stroke="none">
<path d="M656 1389 c-78 -13 -187 -72 -250 -135 -69 -70 -121 -172 -138 -272
-23 -137 26 -291 128 -401 61 -66 158 -122 245 -141 79 -17 210 -8 282 20 183
70 307 252 307 449 -1 145 -40 241 -140 342 -118 120 -266 167 -434 138z m247
-229 c206 -77 264 -291 115 -426 -66 -59 -137 -86 -242 -92 -110 -5 -193 18
-272 78 -128 97 -134 265 -14 374 101 91 273 118 413 66z"/>
<path d="M667 1140 c-95 -24 -186 -104 -207 -180 -25 -91 27 -188 131 -245 69
-37 198 -47 277 -21 188 63 242 256 106 376 -21 18 -58 42 -82 52 -50 23 -169
32 -225 18z m207 -109 c47 -44 22 -109 -48 -127 -19 -4 -15 -11 38 -67 l60
-62 -35 -3 c-27 -3 -37 1 -49 20 -8 12 -30 40 -49 60 -29 33 -39 38 -77 38
l-44 0 0 -61 c0 -60 0 -60 -27 -57 l-28 3 0 135 c0 74 1 139 3 144 3 4 55 6
117 4 104 -3 116 -5 139 -27z"/>
<path d="M678 1024 c-5 -4 -8 -27 -8 -51 l0 -43 66 0 c36 0 74 5 85 10 22 12
25 52 5 69 -16 14 -138 26 -148 15z"/>
<path d="M475 366 c-60 -26 -73 -109 -26 -157 79 -79 195 12 146 114 -11 23
-28 39 -47 46 -37 13 -36 13 -73 -3z m76 -42 c20 -24 16 -84 -6 -100 -10 -8
-25 -14 -32 -14 -21 0 -53 38 -53 63 0 54 60 88 91 51z"/>
<path d="M1123 366 c-94 -42 -59 -186 46 -186 54 0 90 32 98 86 4 35 1 46 -23
73 -34 37 -77 46 -121 27z m100 -38 c24 -28 22 -77 -5 -105 -56 -59 -152 9
-116 83 25 54 84 65 121 22z"/>
<path d="M1130 275 c0 -30 5 -55 10 -55 6 0 10 11 10 25 0 14 4 25 8 25 5 0
14 -11 20 -25 6 -14 16 -25 22 -25 13 0 13 13 -1 27 -8 8 -7 16 2 30 19 32 5
53 -36 53 l-35 0 0 -55z m58 28 c2 -8 -5 -13 -17 -13 -12 0 -21 6 -21 16 0 18
31 15 38 -3z"/>
<path d="M250 355 c0 -10 10 -15 30 -15 l30 0 0 -80 c0 -73 2 -80 20 -80 18 0
20 7 20 80 l0 80 30 0 c20 0 30 5 30 15 0 12 -16 15 -80 15 -64 0 -80 -3 -80
-15z"/>
<path d="M632 278 c3 -78 6 -93 20 -96 14 -3 17 7 20 60 l3 63 39 -62 c25 -41
45 -63 57 -63 17 0 19 9 19 95 0 88 -2 95 -20 95 -16 0 -19 -8 -22 -57 l-3
-58 -35 58 c-26 43 -40 57 -57 57 -23 0 -24 -2 -21 -92z"/>
<path d="M820 364 c0 -4 14 -29 30 -56 20 -32 30 -61 30 -88 0 -33 3 -40 20
-40 16 0 20 7 20 38 0 21 6 46 13 57 7 11 24 37 36 58 l23 37 -24 0 c-17 0
-30 -10 -45 -36 l-20 -36 -22 36 c-13 21 -31 36 -42 36 -10 0 -19 -3 -19 -6z"/>
</g>
</svg>
